<?xml version="1.0" encoding="utf-8"?>
<!-- Generator: Adobe Illustrator 28.1.0, SVG Export Plug-In . SVG Version: 6.00 Build 0)  -->
<svg version="1.1" id="Layer_1" xmlns="http://www.w3.org/2000/svg" xmlns:xlink="http://www.w3.org/1999/xlink" x="0px" y="0px"
	 viewBox="0 0 260 260" enable-background="new 0 0 260 260" xml:space="preserve">
<g>
	<rect x="208.4" y="179.4" fill="#E03127" width="6.3" height="9.5"/>
	<rect x="193.1" y="160" fill="#E03127" width="6.3" height="13.1"/>
	<rect x="208.4" y="160" fill="#E03127" width="6.3" height="13.1"/>
	<rect x="193.1" y="149.5" fill="#E03127" width="21.6" height="4.2"/>
	<rect x="193.1" y="195.1" fill="#E03127" width="21.6" height="4.2"/>
	<rect x="193.1" y="179.4" fill="#E03127" width="6.3" height="9.5"/>
	<rect x="208.4" y="110.7" fill="#E03127" width="6.3" height="13.1"/>
	<rect x="193.1" y="100.2" fill="#E03127" width="21.6" height="4.2"/>
	<path fill="#E03127" d="M193.1,143.2h6.3v-10c0-1.7-1.4-3.1-3.2-3.1c-1.8,0-3.1,1.4-3.1,3.1V143.2z"/>
	<rect x="182.5" y="61.4" fill="#E03127" width="32.1" height="4.2"/>
	<path fill="#E03127" d="M211.6,130.1c-1.8,0-3.1,1.4-3.1,3.1v10h6.3v-10C214.7,131.5,213.3,130.1,211.6,130.1z"/>
	<rect x="193.1" y="110.7" fill="#E03127" width="6.3" height="13.1"/>
	<path fill="#E03127" d="M70.9,143.2h6.3v-10c0-1.7-1.4-3.1-3.2-3.1c-1.8,0-3.1,1.4-3.1,3.1V143.2z"/>
	<rect x="55.6" y="110.7" fill="#E03127" width="6.3" height="13.1"/>
	<path fill="#E03127" d="M153.6,40.1v2.1h0V43h4.2v-2.9c0-3.3-2.2-6.1-5.3-7V0h-4.2v37h2.1C152.2,37,153.6,38.4,153.6,40.1z"/>
	<rect x="101.4" y="110.7" fill="#E03127" width="6.3" height="13.1"/>
	<path fill="#E03127" d="M55.6,143.2h6.3v-10c0-1.7-1.4-3.1-3.2-3.1c-1.8,0-3.1,1.4-3.1,3.1V143.2z"/>
	<rect x="55.6" y="179.4" fill="#E03127" width="6.3" height="9.5"/>
	<path fill="#E03127" d="M104.6,130.1c-1.8,0-3.2,1.4-3.2,3.1v10h6.3v-10C107.7,131.5,106.3,130.1,104.6,130.1z"/>
	<rect x="86.1" y="110.7" fill="#E03127" width="6.3" height="13.1"/>
	<rect x="70.9" y="110.7" fill="#E03127" width="6.3" height="13.1"/>
	<path fill="#E03127" d="M86.1,143.2h6.3v-10c0-1.7-1.4-3.1-3.1-3.1c-1.8,0-3.1,1.4-3.1,3.1V143.2z"/>
	<polygon fill="#E03127" points="49.2,110.7 45,110.7 45,199.3 107.7,199.3 107.7,195.1 49.2,195.1 49.2,153.7 107.7,153.7 
		107.7,149.5 49.2,149.5 	"/>
	<rect x="55.6" y="160" fill="#E03127" width="6.3" height="13.1"/>
	<polygon fill="#E03127" points="134.3,53 166.5,53 171.6,71.9 176,71.9 169.8,48.8 131.1,48.8 124.8,71.9 129.2,71.9 	"/>
	<rect x="101.4" y="160" fill="#E03127" width="6.3" height="13.1"/>
	<path fill="#E03127" d="M130.1,169.4v33.8h4.2v-33.8c0-5.2-4.3-9.4-9.5-9.4h-0.2v4.2c0.2,0,0,0,0.2,0
		C127.7,164.1,130.1,166.5,130.1,169.4z"/>
	<rect x="101.4" y="179.4" fill="#E03127" width="6.3" height="9.5"/>
	<rect x="70.9" y="179.4" fill="#E03127" width="6.3" height="9.5"/>
	<rect x="70.9" y="160" fill="#E03127" width="6.3" height="13.1"/>
	<rect x="86.1" y="179.4" fill="#E03127" width="6.3" height="9.5"/>
	<rect x="86.1" y="160" fill="#E03127" width="6.3" height="13.1"/>
	<path fill="#E03127" d="M166.2,143.2h6.3v-10c0-1.7-1.4-3.1-3.2-3.1c-1.8,0-3.1,1.4-3.1,3.1V143.2z"/>
	<polygon fill="#E03127" points="59.9,65.6 118.3,65.6 118.3,61.4 56.7,61.4 45.1,104.4 107.7,104.4 107.7,100.2 50.6,100.2 	"/>
	<polygon fill="#E03127" points="182.5,201.6 186.8,199.3 186.8,80.3 182.5,80.3 	"/>
	<path fill="#E03127" d="M166.6,169.4v33.8h4.2v-33.8c0-2.9,2.4-5.2,5.3-5.2c0.2,0,0,0,0.2,0V160h-0.2
		C170.8,160,166.6,164.2,166.6,169.4z"/>
	<path fill="#E03127" d="M157.8,137.4c0-4-3.3-7.3-7.4-7.3c-4.1,0-7.3,3.3-7.3,7.3v12.1h-18.5v4.2h51.7v-4.2h-18.5V137.4z
		 M153.6,149.5h-6.3v-12.1c0-1.7,1.4-3.1,3.1-3.1c1.8,0,3.2,1.4,3.2,3.1V149.5z"/>
	<polygon fill="#E03127" points="165.2,80.4 150.4,71.9 150.3,71.8 135.7,80.4 135.7,87.6 124.6,87.6 124.6,91.8 139.9,91.8 
		139.9,82.7 150.4,76.7 161,82.8 161,91.8 176.3,91.8 176.3,87.6 165.2,87.6 	"/>
	<path fill="#E03127" d="M128.3,143.2h6.3v-10c0-1.7-1.4-3.1-3.1-3.1c-1.8,0-3.2,1.4-3.2,3.1V143.2z"/>
	<path fill="#E03127" d="M159.9,203.2v-33.8c0-5.2-4.2-9.4-9.5-9.4c-5.2,0-9.5,4.2-9.5,9.4v33.8h4.2v-33.8c0-2.9,2.4-5.2,5.3-5.2
		c2.9,0,5.3,2.3,5.3,5.2v33.8H159.9z"/>
	<polygon fill="#E03127" points="114,199.3 118.3,201.6 118.3,80.3 114,80.3 	"/>
	<path fill="#E03127" d="M154.6,88.2c0-2.4-1.9-4.3-4.2-4.3c-2.3,0-4.2,1.9-4.2,4.3c0,2.4,1.9,4.3,4.2,4.3
		C152.8,92.4,154.6,90.5,154.6,88.2z"/>
	<rect x="128.3" y="110.7" fill="#E03127" width="6.3" height="13.1"/>
	<path fill="#E03127" d="M150.5,96c-4.6,0-8.7,1.6-12,4.2h-14v4.2h15.5c2.7-2.6,6.4-4.2,10.4-4.2c4.1,0,7.7,1.6,10.4,4.2h15.3v-4.2
		h-13.7C159.3,97.5,155.1,96,150.5,96z"/>
	<path fill="#E03127" d="M157.8,123.8v-10c0-4-3.3-7.4-7.4-7.4c-4.1,0-7.3,3.3-7.3,7.4v10h4.2v-10c0-1.7,1.4-3.1,3.1-3.1
		c1.8,0,3.2,1.4,3.2,3.1v10H157.8z"/>
	<rect x="166.2" y="110.7" fill="#E03127" width="6.3" height="13.1"/>
	<polygon fill="#E03127" points="130.1,209.5 124.6,206.3 124.6,211.2 129,213.7 171.8,213.7 176.3,211.2 176.3,206.3 170.7,209.5 	
		"/>
</g>
<rect x="255.8" y="0" fill="#58595B" width="4.3" height="260.7"/>
</svg>
